<!-- Império Global — versão negativa (fundos escuros).
     RECRIAÇÃO FIEL ao manual. TODO: substituir pelo vetor oficial (imperio_white.svg). -->
<svg xmlns="http://www.w3.org/2000/svg" viewBox="0 0 360 84" role="img" aria-label="Império Global — Excellence in Telecommunications">
  <defs>
    <linearGradient id="xgw" x1="0" y1="0" x2="1" y2="1">
      <stop offset="0" stop-color="#AFC4D6"/><stop offset="1" stop-color="#ffffff"/>
    </linearGradient>
  </defs>
  <g fill="none" stroke="#ffffff" stroke-width="1.6">
    <circle cx="42" cy="40" r="30"/>
    <ellipse cx="42" cy="40" rx="20" ry="30"/>
    <ellipse cx="42" cy="40" rx="9" ry="30"/>
    <line x1="42" y1="10" x2="42" y2="70"/>
    <line x1="16" y1="25" x2="68" y2="25"/>
    <line x1="12" y1="40" x2="72" y2="40"/>
    <line x1="16" y1="55" x2="68" y2="55"/>
  </g>
  <g fill="none" stroke="#AFC4D6" stroke-width="1.5" stroke-linecap="round">
    <path d="M50 58 Q60 60 67 57"/><path d="M49 61 Q58 65 65 64"/><path d="M47 63 Q53 68 60 69"/>
  </g>
  <g fill="#AFC4D6"><circle cx="67" cy="57" r="1.4"/><circle cx="65" cy="64" r="1.4"/><circle cx="60" cy="69" r="1.4"/></g>
  <text x="92" y="44" font-family="Archivo, 'Arial Narrow', sans-serif" font-weight="700" font-size="34" fill="#ffffff" letter-spacing="0.5">IMPÉRIO</text>
  <text x="176" y="61" font-family="Archivo, 'Arial Narrow', sans-serif" font-weight="700" font-size="19" fill="#AFC4D6" letter-spacing="3">GLOBAL</text>
  <text x="93" y="77" font-family="Inter, sans-serif" font-weight="600" font-size="12.5" fill="#AFC4D6" letter-spacing="0.3">Excellence in Telecommunications</text>
  <g transform="translate(300,40)">
    <g stroke="url(#xgw)" stroke-width="10" stroke-linecap="round" fill="none">
      <line x1="-26" y1="-22" x2="26" y2="22"/><line x1="26" y1="-22" x2="-26" y2="22"/>
    </g>
  </g>
</svg>
